<svg xmlns="http://www.w3.org/2000/svg" width="77" height="48" viewBox="0 0 77 48">

  <path id="_" data-name="/ " fill="#b8dbfc" stroke="none" stroke-width="6" stroke-linecap="round" stroke-linejoin="round" class="cls-1" d="M32.857,47.915a2.76,2.76,0,0,1-1.775-.351,2.094,2.094,0,0,1-1.168-1.539,2.556,2.556,0,0,1,.071-1.185l11.8-42.8a2.676,2.676,0,0,1,.7-1.206,2.133,2.133,0,0,1,1.109-.6A2.572,2.572,0,0,1,45.319.6a2.013,2.013,0,0,1,1.168,1.539,2.556,2.556,0,0,1-.071,1.185L34.667,46.11a2.677,2.677,0,0,1-.7,1.206A1.989,1.989,0,0,1,32.857,47.915Z"/>
  <path id="Layer" fill="none" stroke="#def6ff" stroke-width="6" stroke-linecap="round" stroke-linejoin="round" class="cls-2" d="M55,43L73,25,55,7"/>
  <path id="Layer-2" fill="none" stroke="#def6ff" stroke-width="6" stroke-linecap="round" stroke-linejoin="round" data-name="Layer" class="cls-2" d="M21,7L3,25,21,43"/>
</svg>
